# Blender v2.74 (sub 0) OBJ File: ''
# www.blender.org
mtllib Asteroid.mtl
o Sphere
v -0.325413 1.513266 -0.000000
v -0.731196 1.004430 -0.000000
v -0.974928 -0.222521 0.000000
v -0.433884 -0.900969 0.000000
v 0.348012 -1.151309 -0.000000
v -0.202892 1.513266 -0.254418
v -0.365598 1.305156 -0.458445
v -0.455893 1.004430 -0.571672
v -0.607858 -0.222521 -0.762229
v -0.487464 -0.623490 -0.611260
v -0.270522 -0.900969 -0.339224
v 0.072411 1.513266 -0.317254
v 0.720583 1.214371 -0.571672
v 0.752809 0.913645 -0.712863
v 0.587650 0.216277 -0.950484
v 0.521986 -0.774799 -0.762229
v 0.444560 -1.052278 -0.423005
v -0.000000 1.587539 0.000000
v 0.293187 1.513266 -0.141191
v 1.118407 1.214371 -0.254418
v 1.248887 0.913645 -0.317254
v 1.249088 0.216277 -0.423005
v 1.052418 -0.774799 -0.339224
v 0.738927 -1.052278 -0.188255
v 0.293187 1.513266 0.141191
v 1.118407 1.214371 0.254418
v 1.248887 0.913645 0.317254
v 1.249088 0.216277 0.423005
v 1.052418 -0.774799 0.339224
v 0.738927 -1.052278 0.188255
v 0.072411 1.513266 0.317254
v 0.720583 1.214371 0.571672
v 0.752809 0.913645 0.712863
v 0.587650 0.216277 0.950484
v 0.521986 -0.774799 0.762229
v 0.444560 -1.052278 0.423005
v -0.202892 1.513266 0.254418
v -0.365598 1.305156 0.458445
v -0.455893 1.004430 0.571672
v -0.607858 -0.222521 0.762229
v -0.487464 -0.623490 0.611260
v -0.270522 -0.900969 0.339224
v -0.586374 1.305156 -0.000000
v -0.781832 -0.623490 -0.000000
vn -0.993200 -0.116300 0.000000
vn -0.951800 0.306900 0.000000
vn -0.555700 0.332800 -0.761900
vn -0.588600 -0.086400 -0.803800
vn -0.370900 -0.846000 -0.383100
vn -0.498600 -0.543000 -0.675600
vn 0.203400 -0.515700 -0.832200
vn 0.053000 -0.884300 -0.463900
vn 0.224500 0.015800 -0.974300
vn 0.293300 0.294500 -0.909500
vn -0.451700 0.582500 -0.675700
vn 0.261200 0.642700 -0.720200
vn -0.277300 0.860500 -0.427400
vn 0.045500 0.856500 -0.514100
vn 0.785200 -0.488900 -0.380000
vn 0.434600 -0.876000 -0.209300
vn 0.891100 -0.068000 -0.448500
vn 0.883400 0.239900 -0.402400
vn 0.655500 0.690600 -0.305500
vn 0.270100 0.948800 -0.163900
vn 0.785200 -0.488900 0.380000
vn 0.434600 -0.876000 0.209300
vn 0.891100 -0.068000 0.448500
vn 0.883400 0.239900 0.402400
vn 0.655500 0.690600 0.305500
vn 0.270100 0.948800 0.163900
vn 0.203400 -0.515700 0.832200
vn 0.053000 -0.884300 0.463900
vn 0.224500 0.015800 0.974300
vn 0.293300 0.294500 0.909500
vn 0.261200 0.642700 0.720200
vn 0.045500 0.856500 0.514100
vn -0.498600 -0.543000 0.675600
vn -0.370900 -0.846000 0.383100
vn -0.588600 -0.086400 0.803800
vn -0.555700 0.332800 0.761900
vn -0.451700 0.582500 0.675700
vn -0.277300 0.860500 0.427400
vn -0.064800 -0.997900 0.000000
vn -0.509800 -0.860300 0.000000
vn -0.803800 -0.594800 0.000000
vn -0.803800 0.594800 0.000000
vn -0.482300 0.876000 0.000000
vn 0.000000 1.000000 0.000000
usemtl Asteroid
s 1
f 3//1 2//2 8//3 9//4
f 11//5 10//6 16//7 17//8
f 10//6 9//4 15//9 16//7
f 9//4 8//3 14//10 15//9
f 8//3 7//11 13//12 14//10
f 7//11 6//13 12//14 13//12
f 17//8 16//7 23//15 24//16
f 16//7 15//9 22//17 23//15
f 15//9 14//10 21//18 22//17
f 14//10 13//12 20//19 21//18
f 13//12 12//14 19//20 20//19
f 24//16 23//15 29//21 30//22
f 23//15 22//17 28//23 29//21
f 22//17 21//18 27//24 28//23
f 21//18 20//19 26//25 27//24
f 20//19 19//20 25//26 26//25
f 30//22 29//21 35//27 36//28
f 29//21 28//23 34//29 35//27
f 28//23 27//24 33//30 34//29
f 27//24 26//25 32//31 33//30
f 26//25 25//26 31//32 32//31
f 36//28 35//27 41//33 42//34
f 35//27 34//29 40//35 41//33
f 34//29 33//30 39//36 40//35
f 33//30 32//31 38//37 39//36
f 32//31 31//32 37//38 38//37
f 5//39 4//40 11//5
f 4//40 44//41 10//6 11//5
f 44//41 3//1 9//4 10//6
f 2//2 43//42 7//11 8//3
f 43//42 1//43 6//13 7//11
f 1//43 18//44 6//13
f 5//39 11//5 17//8
f 6//13 18//44 12//14
f 5//39 17//8 24//16
f 12//14 18//44 19//20
f 5//39 24//16 30//22
f 19//20 18//44 25//26
f 5//39 30//22 36//28
f 25//26 18//44 31//32
f 5//39 36//28 42//34
f 31//32 18//44 37//38
f 5//39 42//34 4//40
f 42//34 41//33 44//41 4//40
f 41//33 40//35 3//1 44//41
f 40//35 39//36 2//2 3//1
f 39//36 38//37 43//42 2//2
f 38//37 37//38 1//43 43//42
f 37//38 18//44 1//43
