# Blender v2.74 (sub 0) OBJ File: 'HighMissile.blend'
# www.blender.org
mtllib HighMissile.mtl
o Cylinder
v 0.176777 -0.176776 -1.208820
v 0.250000 0.000000 -1.208820
v 0.250000 -0.000000 1.140452
v 0.176777 -0.176777 1.140452
v -0.250000 -0.000000 1.140452
v -0.176777 -0.176777 1.140452
v -0.088388 -0.088389 1.239989
v -0.125000 -0.000000 1.239989
v 0.000000 0.250000 -1.208819
v -0.176777 0.176777 -1.208820
v -0.176777 0.176776 1.140452
v 0.000000 0.250000 1.140452
v -0.176777 -0.176776 -1.208820
v 0.000000 -0.250000 -1.208820
v 0.000000 -0.250000 1.140451
v 0.176777 0.176777 -1.208820
v 0.176777 0.176776 1.140452
v -0.250000 0.000000 -1.208820
v -0.088388 -0.088389 1.302489
v -0.125000 -0.000000 1.302489
v -0.088388 0.088388 1.239989
v 0.000000 0.125000 1.239989
v 0.088388 0.088388 1.239989
v 0.125000 -0.000000 1.239989
v 0.088388 -0.088389 1.239989
v 0.000000 -0.125000 1.239989
v -0.088388 0.088388 1.302489
v -0.375000 -0.000000 1.587988
v -0.265165 0.265165 1.587988
v 0.000000 0.125000 1.302489
v 0.088388 0.088388 1.302489
v 0.125000 -0.000000 1.302489
v 0.088388 -0.088389 1.302489
v 0.000000 -0.125000 1.302489
v 0.000000 -0.375000 1.587987
v 0.265165 -0.265165 1.587987
v 0.375000 -0.000000 1.587988
v 0.265165 0.265165 1.587988
v 0.000000 0.375000 1.587988
v -0.265165 -0.265165 1.587987
v 0.305066 -0.305065 -2.112024
v 0.431428 0.000001 -2.112024
v 0.431428 0.000000 -1.724915
v 0.305066 -0.305066 -1.724915
v 0.000000 0.409858 -2.337293
v 0.289813 0.289813 -2.337293
v 0.202869 0.202870 -2.553007
v 0.000000 0.286901 -2.553007
v 0.305066 0.305066 -2.112024
v 0.305066 0.305066 -1.724914
v 0.000000 0.431429 -2.112024
v 0.000000 0.431429 -1.724914
v -0.305066 0.305066 -2.112024
v -0.305066 0.305066 -1.724914
v -0.431428 0.000001 -2.112024
v -0.431428 0.000000 -1.724915
v 0.289813 -0.289812 -2.337293
v 0.409857 0.000001 -2.337293
v -0.305066 -0.305065 -2.112024
v -0.305066 -0.305066 -1.724915
v 0.000000 -0.431428 -2.112024
v 0.000000 -0.431428 -1.724915
v 0.000000 -0.286899 -2.553007
v -0.202869 -0.202868 -2.553007
v -0.101434 -0.101434 -2.660864
v 0.000000 -0.143449 -2.660864
v 0.202869 -0.202868 -2.553007
v 0.286900 0.000001 -2.553007
v -0.289813 -0.289812 -2.337293
v -0.409857 0.000001 -2.337293
v -0.286900 0.000001 -2.553007
v -0.289813 0.289813 -2.337293
v -0.202869 0.202870 -2.553007
v 0.000000 -0.409856 -2.337293
v 0.101434 -0.101434 -2.660864
v -0.143450 0.000001 -2.660864
v -0.101434 0.101435 -2.660864
v 0.000000 0.143451 -2.660864
v 0.101434 0.101435 -2.660864
v 0.143450 0.000001 -2.660864
vn 0.706300 -0.706300 -0.047200
vn 0.998900 0.000000 -0.047200
vn 0.986800 -0.000000 0.161800
vn 0.697800 -0.697800 0.161800
vn 0.000000 0.957600 -0.288200
vn 0.677100 0.677100 -0.288200
vn 0.545000 0.545000 -0.637200
vn -0.000000 0.770700 -0.637200
vn 0.706300 0.706300 -0.047200
vn 0.697800 0.697800 0.161800
vn 0.000000 0.998900 -0.047200
vn 0.000000 0.986800 0.161800
vn -0.706300 0.706300 -0.047200
vn -0.697800 0.697800 0.161800
vn -0.998900 0.000000 -0.047200
vn -0.986800 -0.000000 0.161800
vn 0.677100 -0.677100 -0.288200
vn 0.957600 0.000000 -0.288200
vn -0.706300 -0.706300 -0.047200
vn -0.697800 -0.697800 0.161800
vn 0.000000 -0.998900 -0.047200
vn 0.000000 -0.986800 0.161800
vn -0.000000 -0.770700 -0.637200
vn -0.545000 -0.545000 -0.637200
vn -0.271600 -0.271600 -0.923300
vn 0.000000 -0.384100 -0.923300
vn 0.545000 -0.545000 -0.637200
vn 0.770700 0.000000 -0.637200
vn -0.677100 -0.677100 -0.288200
vn -0.957600 0.000000 -0.288200
vn -0.770700 0.000000 -0.637200
vn -0.677100 0.677100 -0.288200
vn -0.545000 0.545000 -0.637200
vn -0.000000 -0.957600 -0.288200
vn 0.271600 -0.271600 -0.923300
vn -0.384100 0.000000 -0.923300
vn -0.271600 0.271600 -0.923300
vn 0.000000 0.384100 -0.923300
vn 0.271600 0.271600 -0.923300
vn 0.384100 0.000000 -0.923300
vn 0.000000 -0.984500 0.175400
vn 0.696100 -0.696100 0.175400
vn 0.984500 -0.000000 0.175400
vn 0.696100 0.696100 0.175400
vn -0.000000 0.984500 0.175400
vn -0.696100 0.696100 0.175400
vn -0.984500 -0.000000 0.175400
vn -0.696100 -0.696100 0.175400
vn 0.917600 -0.000000 0.397500
vn 0.648900 -0.648900 0.397500
vn -0.917600 -0.000000 0.397500
vn -0.648900 -0.648900 0.397500
vn -0.619600 -0.619600 0.481900
vn -0.876200 -0.000000 0.481900
vn -0.648900 0.648900 0.397500
vn 0.000000 0.917600 0.397500
vn 0.000000 -0.917600 0.397500
vn 0.648900 0.648900 0.397500
vn -0.652900 -0.652900 -0.383800
vn -0.923400 0.000000 -0.383800
vn -0.619600 0.619600 0.481900
vn -0.000000 0.876200 0.481900
vn 0.619600 0.619600 0.481900
vn 0.876200 -0.000000 0.481900
vn 0.619600 -0.619600 0.481900
vn -0.000000 -0.876200 0.481900
vn -0.652900 0.652900 -0.383800
vn -0.937600 -0.000000 0.347600
vn -0.663000 0.663000 0.347600
vn -0.000000 0.923400 -0.383800
vn 0.652900 0.652900 -0.383800
vn 0.923400 0.000000 -0.383800
vn 0.652900 -0.652900 -0.383800
vn -0.000000 -0.923400 -0.383800
vn -0.000000 -0.937600 0.347600
vn 0.663000 -0.663000 0.347600
vn 0.937600 -0.000000 0.347600
vn 0.663000 0.663000 0.347600
vn 0.000000 0.937600 0.347600
vn -0.663000 -0.663000 0.347600
usemtl Head
s 1
f 41//1 42//2 43//3 44//4
f 45//5 46//6 47//7 48//8
f 43//3 42//2 49//9 50//10
f 50//10 49//9 51//11 52//12
f 52//12 51//11 53//13 54//14
f 54//14 53//13 55//15 56//16
f 42//2 41//1 57//17 58//18
f 56//16 55//15 59//19 60//20
f 60//20 59//19 61//21 62//22
f 63//23 64//24 65//25 66//26
f 58//18 57//17 67//27 68//28
f 69//29 70//30 71//31 64//24
f 72//32 45//5 48//8 73//33
f 46//6 58//18 68//28 47//7
f 57//17 74//34 63//23 67//27
f 74//34 69//29 64//24 63//23
f 70//30 72//32 73//33 71//31
f 75//35 66//26 65//25 76//36 77//37 78//38 79//39 80//40
f 71//31 73//33 77//37 76//36
f 48//8 47//7 79//39 78//38
f 68//28 67//27 75//35 80//40
f 64//24 71//31 76//36 65//25
f 73//33 48//8 78//38 77//37
f 47//7 68//28 80//40 79//39
f 67//27 63//23 66//26 75//35
f 14//41 62//22 44//4 1//42
f 1//42 44//4 43//3 2//43
f 2//43 43//3 50//10 16//44
f 16//44 50//10 52//12 9//45
f 9//45 52//12 54//14 10//46
f 10//46 54//14 56//16 18//47
f 13//48 60//20 62//22 14//41
f 18//47 56//16 60//20 13//48
f 49//9 42//2 58//18 46//6
f 41//1 61//21 74//34 57//17
f 61//21 59//19 69//29 74//34
f 55//15 53//13 72//32 70//30
f 51//11 49//9 46//6 45//5
f 59//19 55//15 70//30 69//29
f 53//13 51//11 45//5 72//32
f 62//22 61//21 41//1 44//4
usemtl Titanium
f 1//42 2//43 3//49 4//50
f 5//51 6//52 7//53 8//54
f 9//45 10//46 11//55 12//56
f 13//48 14//41 15//57 6//52
f 14//41 1//42 4//50 15//57
f 2//43 16//44 17//58 3//49
f 10//46 18//47 5//51 11//55
f 16//44 9//45 12//56 17//58
f 18//47 13//48 6//52 5//51
f 8//54 7//53 19//59 20//60
f 12//56 11//55 21//61 22//62
f 3//49 17//58 23//63 24//64
f 15//57 4//50 25//65 26//66
f 6//52 15//57 26//66 7//53
f 11//55 5//51 8//54 21//61
f 17//58 12//56 22//62 23//63
f 4//50 3//49 24//64 25//65
f 27//67 20//60 28//68 29//69
f 22//62 21//61 27//67 30//70
f 24//64 23//63 31//71 32//72
f 26//66 25//65 33//73 34//74
f 7//53 26//66 34//74 19//59
f 21//61 8//54 20//60 27//67
f 23//63 22//62 30//70 31//71
f 25//65 24//64 32//72 33//73
f 35//75 36//76 37//77 38//78 39//79 29//69 28//68 40//80
f 31//71 30//70 39//79 38//78
f 33//73 32//72 37//77 36//76
f 20//60 19//59 40//80 28//68
f 30//70 27//67 29//69 39//79
f 32//72 31//71 38//78 37//77
f 34//74 33//73 36//76 35//75
f 19//59 34//74 35//75 40//80
